<svg xmlns="http://www.w3.org/2000/svg" xmlns:xlink="http://www.w3.org/1999/xlink" version="1.1" x="0px" y="0px" viewBox="0 0 95 118.75" style="enable-background:new 0 0 95 95;" xml:space="preserve"><path d="M93.8,42.5c-0.7-1.9-0.2-4-1.2-5.9c-0.1-0.2-0.1-0.4-0.1-0.6c-0.2-0.9-0.3-1.8-0.6-2.6c-1.6-4.5-3.5-8.9-6.3-12.9  C78.2,10,68.2,3.4,55.5,1c-1.8-0.3-3.7-0.5-5.5-0.8c-6.7-1.1-13-0.1-19,2.9c-1.6,0.8-3.3,1.7-4.9,2.5c-2.5,1.3-4.8,2.9-7.1,4.4  c-1.9,1.3-3.3,3-4.9,4.6c-1.6,1.6-3.3,3.2-4.4,5.2c-2,3.4-4,6.8-5.4,10.6c-0.3,0.8-0.5,1.7-0.9,2.4c-0.1,1.4-0.5,2.7-0.9,4  c0,0.2-0.1,0.3-0.2,0.4c-1.1,5.1-1.4,10.3-1,15.5c0.1,1.1,0.5,2.2,0.2,3.3c0.1,0.2,0.1,0.5,0.2,0.7c0.3,0.3,0.3,0.8,0.4,1.2  c1.2,5.1,3,10,5.7,14.5C11.6,78.8,16.3,84,22.4,88c7.6,5,15.9,7.5,24.9,7.6c2.5,0,5-0.2,7.4-0.6c5.9-1,11.5-3,16.6-6.2  c6-3.8,10.9-8.7,14.8-14.6c1.1-1.6,1.8-3.4,3-5c0.1-0.3,0.3-0.6,0.5-0.9c0.1-0.5,0.3-0.9,0.5-1.4c0.7-2.1,1.6-4.1,2.2-6.3  C93.8,54.6,93.9,48.6,93.8,42.5z M52.7,16.9c0.8-0.1,1.6-0.2,2.3-0.2c3.3-0.2,6.6-0.6,9.9-0.5c1.1,0,2.3,0,3.4,0.2  c1.7,0.2,3.3-0.3,4.9-0.2c0.5,0,0.9,0,1.4,0c0.2,0,0.3,0,0.5,0.1c0.5,0.1,1.1,0.4,1.3,0.9c0.2,0.5-0.4,0.9-0.8,1.2  c-1.5,0.8-3,1.7-4.8,1.9c-2.1,0.3-4.1,0.7-6.2,0.9c-0.4,0-1.2,0.8-1.2,1.3c0,0.2,0,0.4,0.1,0.4c0.7,0.3,1.3,1.1,2.3,0.8  c2.2-0.6,4.5-0.7,6.8-0.9c0.9,0,1.7,0.1,2.6,0.4c0.4,0.1,0.6,0.3,0.3,0.7C74.6,25.1,73.7,26,72,26c-1.5,0-2.9-0.1-4.3-0.2  c-2.1-0.2-3.9,0.5-5.5,1.7c-0.5,0.3-1.1,0.8-0.8,1.4c0.3,0.7,1,0.5,1.6,0.4c0.7-0.1,1.5-0.2,2.2-0.4c1.3-0.3,2.6-0.4,4-0.3  c1.2,0.1,1.9,0.8,1.9,2c0,0.5-0.3,0.8-0.8,1c-1.9,0.8-3.7,1.5-5.7,1.8c-1.3,0.2-2.6,0.3-3.8,0.4c-1.8,0-3.5,0.7-5.2,0.9  c-1.6,0.1-3.3,0.5-4.9,0.4c-0.7,0-1.3-0.2-1.9-0.4c-0.5-0.2-0.6-0.5-0.3-1c0.4-0.7,1.1-1.1,1.9-1.4c0.6-0.2,1.1-0.4,1.7-0.5  c0.5-0.1,1-0.3,1.4-0.6c0.8-0.5,1-0.8,0.8-1.4c-0.2-0.7-0.8-1.3-1.5-1.3c-0.4,0-0.8,0-1.2,0.1c-1.7,0.3-3.5,0.6-5.2,1  c-1.2,0.2-2.4,0.1-3.6,0.2c-2.7,0.2-5.4,0.8-8.1,1c-0.5,0-1,0.1-1.5,0c-0.9-0.2-1.2-0.8-0.9-1.6c0.1-0.2,0.2-0.3,0.3-0.5  c0.7-1.1,2-1.6,2.9-2.5c0.2-0.2,0.6-0.2,0.9-0.2c1.2,0.1,2.4-0.1,3.6-0.5c0.5-0.2,0.9-0.1,1.4-0.1c1.8,0,3.5-0.2,5.2-0.9  c0.3-0.1,0.5-0.2,0.7-0.4c1-0.6,1-1.2,0-1.9c-0.6-0.4-1.3-0.5-2-0.6c-1.8-0.1-3.6-0.2-5.4-0.6c-0.8-0.2-1.4-0.7-2-1.1  c-0.3-0.3-0.3-0.6-0.2-1c0.4-0.8,1-1.2,1.9-1.1c0.2,0,0.3,0,0.5,0c0.5,0,0.9,0,1.4,0C45.2,17.7,48.9,17.3,52.7,16.9z M30.8,15.4  c0.4-1.5,1.2-2.8,2.3-3.9c1.2-1.2,2.5-2.2,4.1-2.9c0.8-0.3,1.5-0.4,2.3-0.2c3.1,0.5,4.8,2.4,5.8,5.2c0.1,0.3,0.3,0.6,0.5,0.9  c0.5,0.8,0.2,1.5,0,2.3c-0.1,0.3-0.4,0.3-0.7,0.4c-0.8,0.1-1.6,0.2-2.5,0.1c-0.8-0.1-1.6,0.1-2.4-0.3c-1-0.4-2.8,0.9-3.2,1.9  c-0.1,0.4,0,0.7,0.3,1c0.6,0.6,1.3,1.2,2.3,1.4c0.8,0.1,1.6,0.3,2.4,0.5c0.2,0,0.5,0.1,0.5,0.4c0,0.2-0.1,0.3-0.3,0.5  c-0.9,0.7-2,1-3,1.4c-0.9,0.3-1.8,0.4-2.8,0.4c-1,0-1.9-0.1-2.6-0.9c0,0-0.1-0.1-0.1-0.1c-2-0.6-2.3-2.5-3-4.1  C30.2,18.1,30.5,16.7,30.8,15.4z M1.6,49c-0.1-4.2,0.3-8.3,1.3-12.4c0.3-1.2,0.4-1.3,1.7-1.3c2,0,4.1,0.1,6.1,0.1  c0.5,0,0.9,0.1,1.4,0.2c0.2,0.1,0.4,0.2,0.4,0.4c0,0.3-0.2,0.4-0.4,0.5c-0.9,0.2-1.8,0.4-2.6,0.6c-0.7,0.2-0.9,0.5-0.9,1.1  c0,0.6,0.5,0.9,1,1c0.2,0,0.3,0,0.5,0c0.7,0,1.5-0.1,2.2-0.1c2.1-0.1,4.1-0.4,6.2-0.3c0.2,0,0.5,0,0.7,0c0.3,0.1,0.5,0.3,0.6,0.7  c0.1,0.4-0.2,0.5-0.4,0.6c-1,0.4-2,1-3.2,1.3c-0.4,0.1-0.8,0.3-1.2,0.5c-0.3,0.3-0.6,0.5-0.5,1c0.1,0.4,0.5,0.5,0.8,0.6  c0.9,0.2,1.8,0.2,2.7,0c1.5-0.3,3.1-0.7,4.6-1.1c1.3-0.3,2.6-0.7,3.9-0.8c0.8-0.1,1.3,0.3,1.5,1c0.1,0.6-0.2,1.2-0.9,1.5  c-1.3,0.4-2.5,0.9-3.8,1.1c-1.1,0.2-2.1,0.6-3.2,0.9c-0.6,0.2-0.7,0.8-0.9,1.3c-0.1,0.3,0.2,0.6,0.5,0.7c0.4,0.1,0.8,0.1,1.2,0  c0.4-0.1,0.8-0.2,1.2-0.2c0.3,0,0.8-0.1,0.9,0.4c0.1,0.5-0.1,0.9-0.5,1.1c-0.6,0.2-1.2,0.6-1.9,0.5c-1.9-0.1-3.9-0.2-5.6-1.2  c-0.9-0.6-2.1-0.6-3.1-1.2c0,0-0.1,0-0.1,0c-0.9-0.1-1.8,0.3-1.8,0.9c-0.1,0.6,0.5,1.1,1.4,1.3c0.4,0.1,0.8,0.2,1.2,0.2  c0.5,0.1,0.9,0.4,1.2,0.9c-0.8,0.4-1.6,0.6-2.4,0.5c-1.9-0.2-3.8-0.4-5.8-0.2c-0.8,0.1-1.5,0.5-2.1,1C3,52.5,3,52.9,3.3,53.2  c0.2,0.2,0.4,0.5,0.6,0.7c0.4,0.4,0.3,0.7-0.1,1c-0.5,0.4-1.1,0.5-1.6,0.7C1.7,53.3,1.6,51.2,1.6,49z M6.5,69.3  c-1.2-2.4-2.2-4.9-3-7.4c-0.4-1.2-0.1-1.5,1.1-1.4c0.6,0,1.2,0.2,1.8,0.2c2.4,0.3,4.8,0.6,7.1,1.5c1.8,0.7,3.7,1.4,5.4,2.3  c0.8,0.4,1.6,0.8,2.4,1.3c0.7,0.4,1.3,0.8,1.8,1.3c0.8,0.7,1.6,1.4,2.5,2c0.8,0.6,0.8,1.8-0.1,2.3c-1.5,0.8-3,1.4-4.5,1.6  c-1.8-0.1-3.2-0.5-4.5-1.3c-1-0.6-2-1.2-3.1-1.7c-1.9-0.9-3.7-0.7-5.6-0.1C7,70.2,7,70.2,6.5,69.3z M88,70  c-1.9,3.7-4.3,7.1-7.1,10.1C75.6,86,69.1,90.2,61.6,92.8c-4.7,1.6-9.5,2.3-14.4,2.3c-9.1,0-17.4-2.6-24.9-7.6  c-6-4-10.8-9.3-14.4-15.5c-0.6-1.1-0.5-1.6,0.8-1.9c1.9-0.6,3.7-0.3,5.4,0.7c1.7,1,3.3,2.1,5.3,2.4c0.9,0.1,1.7,0.2,2.6,0  c1.3-0.4,2.6-0.8,3.8-1.5c2.1-1.2,4.1-1.1,6.3-0.2c1.4,0.6,2.7,1.4,3.9,2.3c0.6,0.5,1.3,0.8,2.1,1.1c0.5,0.2,0.7,0.4,0.6,0.9  c-0.1,1.9-0.2,3.8-0.3,5.6c0,0.3-0.1,0.6,0.2,0.7c0.2,0.1,0.4-0.1,0.6-0.2c0.3-0.3,0.8-0.4,1.1-1C40,81,39.9,81,39.8,81.1  c-0.2,0.1-0.5,0.4-0.7,0.1c-0.2-0.3-0.2-0.7,0-1c0.3-0.4,0.9-0.5,1.1-1c-0.3-0.4-0.4-0.1-0.6,0c-0.2,0.1-0.3,0.3-0.5,0.1  c-0.2-0.2-0.1-0.5,0.1-0.6c0.3-0.3,0.7-0.6,1-0.8c0.1-0.1,0.3-0.2,0.2-0.4c-0.6-0.2-0.9,0.6-1.5,0.5c-0.2-1.5,1.4-1.5,1.9-2.4  c-0.8-0.1-1,0.9-1.8,0.8c0.1-1.2,1.3-1.4,2-2.2c-0.8-0.2-1,0.7-1.7,0.7c-0.2-0.5-0.1-0.9,0.3-1.2c0.4-0.4,0.7-0.8,1.3-1  c0.2-0.1,0.6-0.1,0.4-0.4c-0.2-0.3-0.4-0.1-0.6,0.1c-0.3,0.2-0.6,0.4-1,0.6c-0.3-0.7,0.2-1,0.6-1.4c0.4-0.4,0.8-0.7,1.3-1.2  c-0.9-0.1-1.1,0.9-1.8,0.8c-0.3-1,0.5-1.5,1.1-2c-0.4-0.4-0.8,0.3-1-0.2c-0.2-0.5-0.2-1,0.1-1.5c0.2-0.3,0.6-0.6,0.9-0.9  c0.1-0.1,0.3-0.1,0.2-0.4c-0.5-0.2-0.6,0.5-1.1,0.4c-0.5-1.3,0.9-1.4,1.3-2.1c-0.4-0.3-0.7,0.3-1.1,0.2c-0.2-0.4,0-0.8-0.2-1.3  c-0.9,0-1.7,0-2.6,0.4c-1.1,0.5-2,0.2-2.8-0.6c-1.7-1.7-2.5-3.7-2.8-6c-0.2-1.4-0.4-2.9-0.6-4.3c-0.4-2.3,0.3-4.4,1.2-6.5  c0.5-1.2,1.5-1.1,2.5-1.1c0.9,0,1.5,0.5,1.7,1.4c0.7,2.3,1.1,4.7,1.1,7.1c0,1.1,0.1,2.3,0.2,3.4c0,0.5,0.3,0.9,0.7,1.1  c0.5,0.3,0.9-0.1,1.3-0.4c0.7-0.5,0.9-1.2,1.2-1.9c0,0,0-0.1,0-0.1c-0.5-0.1-0.6-0.4-0.5-0.8c0.1-0.4,0.6-0.5,0.7-0.9  c-0.7-0.3-0.7-0.5-0.3-0.9c0.3-0.3,0.7-0.6,1.1-1c-0.6-0.3-0.8,0.4-1.3,0.2c-0.3-1.3,1.2-1.4,1.6-2.4c-0.5,0.3-0.9,0.6-1.3,0.8  c-0.1,0.1-0.3,0.2-0.4,0c-0.1-0.1-0.1-0.3,0-0.4c0.2-0.4,0.5-0.6,0.8-0.8c0.3-0.2,0.8-0.3,0.9-0.9c-0.7,0.1-1.2,0.8-1.9,0.8  c0.1-1,1.3-1,1.7-1.9c-0.7,0.1-1.1,0.7-1.7,0.6c0.2-1,1.2-1,1.7-1.8c-0.5,0-0.8,0.4-1.1,0.5c-0.2,0.1-0.5,0.4-0.7,0.1  c-0.2-0.3-0.3-0.7,0.1-1c0.5-0.4,1-1,1.6-1.3c0.1-0.1,0.3-0.1,0.3-0.3c-0.1-0.3-0.3-0.1-0.5,0c-0.4,0.2-0.7,0.5-1,0.8  c-0.3,0.2-0.5,0.7-0.8,0.4c-0.4-0.4,0.1-0.7,0.4-1c0.5-0.5,1.1-0.8,1.6-1.5c-0.9,0.3-1.3,1.1-2.1,1.3c-0.4-1.4,1.1-1.5,1.5-2.4  c-0.7-0.2-0.9,0.4-1.3,0.5c-0.1,0.1-0.3,0.2-0.4,0.1c-0.1-0.1-0.1-0.3,0-0.4c0.3-0.3,0.6-0.6,0.9-1c0.3-0.3,0.6-0.6,0.9-1.1  c-0.8,0.1-1,0.9-1.8,1c0-1.3,1.2-1.8,1.9-2.7c-0.8,0-0.9,0.8-1.5,0.8c-0.1-0.7,0.3-1,0.7-1.5c0.3-0.5,1.1-0.8,0.7-1.6  c0,0,0-0.2,0.1-0.2c0.7-0.5,1.2-1.2,2-1.6c1.3-0.6,2.3-0.2,2.8,1.2c0.4,1,0.7,2.1,0.8,3.2c0.2,2.3-0.2,4.6-0.5,6.8  c-0.5,2.7-0.6,5.5-0.9,8.2c-0.1,0.7-0.1,1.4-0.2,2.1c-0.1,0.8,0,1.5,0.3,2.2c0.2,0.4,0.4,0.8,0.9,0.8c0.5,0,0.8-0.3,1-0.7  c0.5-0.8,0.6-1.6,0.7-2.5c0.6-2.5,1-5.1,1.3-7.7c0.1-1.4,0.6-2.6,1-3.9c0.3-0.8,1.1-1.2,1.9-0.8c0.7,0.3,1.2,0.7,1.5,1.5  c0.7,2.5,1.5,5,0.6,7.6c-0.7,2.2-1.3,4.5-2.6,6.4C52.3,58.9,52.2,59,52,59c0.6-2.1,1-4.3,0.8-6.5c-0.4,0.2-0.3,0.5-0.3,0.8  c0.1,1.9-0.3,3.8-1,5.7c-0.8,2.2-2.3,3.6-4.5,4.3c-0.4,0.1-0.9,0.2-1.4,0.3c-0.9,0.2-1.3,0.7-1,1.6c0.2,0.9,0,1.7,0.3,2.6  c0.1,0.4-0.1,0.6-0.4,0.8c-0.2,0.1-0.4,0.3-0.6,0.2c-0.3-0.1-0.2-0.4-0.2-0.6c0-0.5,0.2-1-0.2-1.5c-0.2,0.8-0.2,1.6-0.2,2.5  c0,0.4,0.3,0.5,0.6,0.3c0.3-0.2,0.7-0.4,1-0.6c0.5,0.8,0.3,1.6,0.5,2.4c0.2,1.4,0.5,2.8,0.5,4.2c0,0.3,0,0.6,0.2,0.9  c1,1.3,0.4,2.8,0.3,4.2c0,0.3-0.3,0.3-0.5,0.3c-0.4,0-0.7-0.1-1-0.1c-1.5-0.3-2.7,0.6-4,1c-1,0.3-1.9,0.8-2.8,1.3  c-1.3,0.6-2.5,0.5-3.3-0.5c-0.3-0.3-0.3-0.7-0.1-1.1c-0.9,0.1-1,0.2-0.6,0.9c1,1.6,2.3,1.9,4.1,1.2c1.4-0.5,2.6-1.3,4-1.8  c1.3-0.6,2.5-0.6,3.8-0.4c1,0.2,1.9,0.3,2.8-0.4c0.6-0.4,1.1-0.2,1.6,0.3c0.7,0.7,1.4,1.3,2.3,1.5c0.2,0.1,0.4,0.2,0.5-0.1  c0-0.2-0.2-0.3-0.3-0.3c-0.9-0.2-1.5-0.8-2.1-1.4c-0.9-0.9-1.2-0.9-2.3-0.3c-0.4,0.2-0.8,0.4-1.3,0.2c0.1-1.3-0.1-2.6,0.2-4  c0.8,0.2,1.5,0.4,2.2,0.6c0.5,0.2,1,0.2,1.5,0c1.7-0.4,3.3-1.1,4.6-2.4c2.7-2.7,5.9-4.7,9.4-6.3c1.9-0.9,3.9-1.6,6.1-1.5  c1.2,0,2.3,0.2,3.4,0.7c1.5,0.6,3.1,0.7,4.6,0.6c1.9-0.1,3.8-0.3,5.6-0.4c1-0.1,2,0.1,2.9,0.5C88.4,69,88.4,69.2,88,70z M91.7,60.5  c-0.3,1-0.3,1-1.4,1.1c-1.4,0.1-2.9,0.4-4.3,0.6c-2.1,0.3-4.3,0.7-6.4,0.3c-0.6-0.1-1.2-0.4-1.7-0.7c-0.6-0.3-0.6-0.6-0.1-0.9  c0.9-0.6,1.9-1,2.9-1.2c0.7-0.1,1.5-0.3,2.2-0.4c0.3-0.1,0.6-0.1,0.9-0.2c0.9-0.3,1.3-0.7,1.2-1.1c-0.1-0.5-0.9-1.2-1.6-1.3  c-1.7-0.1-3.3,0-4.9,0.2c-1.3,0.2-2.6,0.2-3.9,0.3c-0.6,0-1.2,0-1.7-0.3c-0.6-0.2-1.3-0.4-1.9-0.6c-0.9-0.2-1.1-0.9-0.4-1.6  c0.5-0.5,1.1-0.8,1.8-1c1.8-0.4,3.7-0.6,5.6-0.7c1.4-0.1,2.8-0.3,4.2-0.7c0.7-0.2,1.2-0.5,1.8-0.9c0.5-0.4,0.8-0.8,0.6-1.4  c-0.2-0.6-0.6-1.2-1.3-1.3c-0.9-0.2-1.9-0.1-2.8,0.1c-1.6,0.3-3.1,0.1-4.7-0.2c-1-0.2-1.2-0.7-0.7-1.6c0.4-0.7,0.9-1.1,1.7-1.3  c1.7-0.4,3.4-0.6,5.1-0.8c2.6-0.3,5.1-0.7,7.7-1c1-0.1,2,0,3-0.2c0.5-0.1,0.6,0.1,0.7,0.6c0.1,1.3,0.2,2.5,0.2,3.3  C93.4,52.1,92.9,56.4,91.7,60.5z"/><path d="M32.6,48.7c0.5,0,0.5,0.4,0.6,0.6c0.4,1,0.7,2.1,0.8,3.2c0.2,2.1,0.7,4.2,1.5,6.2c0.5,1.3,1.1,2.6,2.8,2.8  c-0.1,0.5-0.3,0.4-0.5,0.3c-1-0.2-1.6-0.9-2.1-1.8c-0.7-1.5-1.2-3.1-1.6-4.7c-0.2-1.1-0.4-2.2-0.5-3.3C33.4,51,33,49.9,32.6,48.7z"/><path d="M21.8,76.4c3.1-0.2,6.1-0.7,9.1-1c-1.4,0.8-3,0.5-4.6,0.8C24.9,76.6,23.4,76.7,21.8,76.4z"/><path d="M41.5,87.9c0-0.3,0.2-0.3,0.4-0.3c2.8,0,5.6-0.2,8.4-0.4C47.4,87.6,44.5,88,41.5,87.9z"/><path d="M50.3,92.7c-0.2,0-0.4,0.1-0.5-0.2c-0.1-0.3,0.3-0.3,0.5-0.3c1.6-0.2,3.2-0.3,4.8-0.5c0.6-0.1,1.2-0.1,1.8-0.2  c0.2,0,0.3,0,0.3,0.3c0,0.1-0.1,0.2-0.3,0.2c-1.1-0.1-2.2,0.2-3.3,0.3C52.4,92.4,51.4,92.7,50.3,92.7z"/><path d="M73.7,83.7c-2.9,0.3-5.8,0.9-8.8,1.5C65.7,84.5,69.3,83.8,73.7,83.7z"/><path d="M71.1,76.4c3.1-0.7,6.2-0.6,9.3-0.9C77.3,75.9,74.2,75.9,71.1,76.4z"/><path d="M60.9,72.8c2.7-0.3,5.5-0.3,8.2-0.7C68,72.5,61.7,73,60.9,72.8z"/><path d="M32.7,86c-2.4,1-4.9,0.9-7.4,0.9c1.2-0.4,2.5-0.3,3.7-0.3C30.2,86.6,31.4,86.1,32.7,86z"/><path d="M17.8,81.3c0.6-0.5,5.2-1.3,6.6-1.3C22.1,80.9,19.8,80.6,17.8,81.3z"/><path d="M66.4,80.5c-2.2,0-4.2,1.1-6.5,0.9C60.4,81.2,65.5,80.4,66.4,80.5z"/><path d="M80.4,72c0.8-0.5,3.5-0.7,4.8-0.4C84.7,71.8,81,72,80.4,72z"/><path d="M12.1,75.7c1.7-0.3,3.4-0.4,5.1-0.6c0,0.1,0,0.2,0,0.2c-1.7,0.2-3.4,0.4-5.1,0.6C12.1,75.8,12.1,75.7,12.1,75.7z"/><path d="M45.2,41.2c-0.3,0.7-0.8,1.3-1.4,2.1c-0.4-0.9-0.7-1.6-1-2.4c0.6,0.3,0.7,0.7,0.9,1.2c0.2,0.3,0.4,0.3,0.6,0.1  c0.2-0.3,0.4-0.7,0.7-1C45.1,41.1,45.1,41.1,45.2,41.2z"/><path d="M53.7,48.3c0,0.5-0.3,0.6-0.4,0.8c-0.3,0.4-0.5,1.1-1,1c-0.5-0.2-0.9-0.9-1.2-1.5c0.6,0,0.6,0.4,0.8,0.6  c0.4,0.5,0.5,0.5,1,0C53.2,48.9,53.2,48.4,53.7,48.3z"/><path d="M43.3,77.7c0.5,0,0.8-0.6,1.5-0.7c-0.5,0.6-1,1-1.7,1.3c-0.4-0.7-0.5-1.3-0.5-2C43,76.8,42.9,77.4,43.3,77.7z"/><path d="M50.7,57.7c0.1,0.8-0.4,1.3-0.7,2c-0.6-0.3-1-0.8-1.7-0.9c0.4-0.3,0.6-0.1,0.8,0c0.7,0.4,0.8,0.3,1.1-0.4  C50.4,58.1,50.3,57.8,50.7,57.7z"/><path d="M34.1,46.2c0.5,0.9,0.5,0.9,1.6,0.3c-0.1,0.6-0.9,1.3-1.3,1.2c-0.2,0-0.3-0.2-0.3-0.3C34,46.9,33.8,46.6,34.1,46.2z"/><path d="M76,71.3c0.2,0,0.5,0,0.6,0.4c0.1,0.3-0.3,0.7-0.8,0.7c-0.3,0-0.6-0.1-0.6-0.5C75.2,71.6,75.5,71.3,76,71.3z"/><path d="M36.2,56.1c-0.3,1.1-0.3,1.1,0.7,1.6c-0.6,0.3-1.2,0.2-1.4-0.2C35.2,56.9,35.9,56.5,36.2,56.1z"/><path d="M41.8,60.5c0-0.5,0.2-0.7,0.4-0.9c0.3,0.4,0.3,0.4,1,0.5c0.2,0,0.3,0,0.3,0.2c0,0.2-0.2,0.2-0.3,0.2  C42.8,60.6,42.4,60.5,41.8,60.5z"/><path d="M37.9,89.5c-0.1,0.3-0.2,0.7-0.7,0.8c-0.2,0-0.4-0.1-0.4-0.3c0-0.4,0.2-0.8,0.6-0.9C37.6,89,37.8,89.2,37.9,89.5z"/><path d="M57.2,85.9c-0.1,0.4-0.4,0.5-0.7,0.4c-0.2,0-0.3-0.2-0.3-0.4c0-0.4,0.2-0.6,0.6-0.5C57.1,85.4,57.2,85.6,57.2,85.9z"/><path d="M15.8,77.8c-0.2,0-0.4-0.2-0.4-0.4c0.1-0.4,0.4-0.5,0.7-0.5c0.2,0,0.3,0.1,0.3,0.3C16.4,77.6,16.2,77.8,15.8,77.8z"/><path d="M62.7,89.5c-0.2,0-0.3-0.1-0.3-0.3c0-0.4,0.4-0.4,0.7-0.5c0.2,0,0.3,0.1,0.3,0.3C63.3,89.4,63,89.5,62.7,89.5z"/><path d="M57.8,76.4c0.1-0.3,0.3-0.5,0.6-0.5c0.2,0,0.3,0.1,0.3,0.3c-0.1,0.3-0.4,0.5-0.7,0.5C57.9,76.7,57.9,76.6,57.8,76.4z"/><path d="M69.6,79.2c0.1-0.3,0.3-0.5,0.6-0.5c0.1,0,0.2,0.1,0.2,0.2c0,0.3-0.4,0.6-0.6,0.5C69.7,79.4,69.7,79.3,69.6,79.2z"/><path d="M21.8,83.8c-0.2,0-0.3-0.2-0.3-0.3c0-0.3,0.3-0.4,0.6-0.5c0.2,0,0.3,0.1,0.3,0.3C22.3,83.6,22,83.8,21.8,83.8z"/><path d="M30,80.1c0,0.3-0.1,0.4-0.3,0.4c-0.2,0-0.3-0.1-0.3-0.4c0-0.2,0.2-0.3,0.4-0.4C30,79.8,29.9,80,30,80.1z"/><path d="M28.3,73.4c0,0.2-0.1,0.4-0.4,0.3c-0.2,0-0.3-0.1-0.3-0.3c0-0.2,0.2-0.3,0.4-0.3C28.3,73.1,28.3,73.3,28.3,73.4z"/><path d="M53.3,33.1c0.3-0.4,0.6-0.3,0.9-0.3c3.2-0.2,6.3-0.6,9.4-1.2c0.7-0.1,1.4-0.1,2.1-0.2c0.1,0,0.2,0,0.3,0.1  c0.1,0.2-0.1,0.3-0.3,0.3c-4.1,0.4-8.1,1.3-12.2,1.4C53.5,33.3,53.4,33.2,53.3,33.1z"/><path d="M52.5,18.3c-0.9,0.6-10.2,1-12.4,0.6c0.4-0.5,0.9-0.4,1.4-0.4c2.1,0.1,4.1,0.1,6.2,0c1.4,0,2.8-0.2,4.2-0.3  C52.1,18.2,52.3,18.1,52.5,18.3z"/><path d="M55.6,26.9c-3.3,0.3-6.7,0.6-10,0.9c0-0.1,0-0.2,0-0.3c0.7-0.4,1.6-0.2,2.4-0.3c0.8-0.2,1.7-0.2,2.6-0.3  c0.9,0,1.7,0,2.6-0.2c0.8-0.1,1.7-0.3,2.5-0.1C55.6,26.8,55.6,26.9,55.6,26.9z"/><path d="M62.3,18.5c2.7-0.2,5.4-0.3,8.3-0.6C69.7,18.5,63.8,18.9,62.3,18.5z"/><path d="M57.9,21.1c-1.1,0.4-2.3,0.1-3.5,0.2c-1.2,0.2-2.4,0.3-3.6,0.3C53.2,21,55.5,21.1,57.9,21.1z"/><path d="M35,28.9c0.3-0.5,0.6-0.5,1-0.5c1.6-0.1,3.1-0.3,4.7-0.5c0.2,0,0.3,0,0.5,0c0.1,0,0.2,0.1,0.3,0.2c0,0.2-0.1,0.3-0.3,0.3  C39.1,28.3,37.1,28.8,35,28.9z"/><path d="M74.4,24.4C73,25.2,71.5,25.1,70,25c0.7-0.5,1.5-0.3,2.2-0.4C72.9,24.6,73.6,24.4,74.4,24.4z"/><path d="M62.7,25c-0.1,0-0.1,0.1-0.2,0.1c-1.4,0-2.8-0.3-4.3-0.1c1.5-0.8,3,0.1,4.5-0.3C62.7,24.8,62.7,24.9,62.7,25z"/><path d="M83.7,53.7c0.2-0.2,0.2-0.3,0.3-0.3c2.5-0.2,5-0.9,7.5-1.1c0.1,0,0.2,0,0.3,0c0.1,0,0.2,0.1,0.2,0.1c0,0.1-0.1,0.2-0.1,0.3  c0,0-0.1,0-0.2,0c-2.1,0-4.1,0.6-6.1,0.9C85,53.7,84.4,53.7,83.7,53.7z"/><path d="M89.1,60.3c-2.6,0.5-5.3,0.9-8.1,1.4C82.1,61,87.9,59.9,89.1,60.3z"/><path d="M84.8,46.8c-0.5,0.3-5.4,0.9-6.4,0.9c0.5-0.5,0.7-0.6,3.1-0.8C82.6,46.8,83.7,46.6,84.8,46.8z"/><path d="M78.1,54.9c-1.5,0.2-3,0.5-4.7,0.4c0.9-0.6,1.7-0.3,2.5-0.4C76.6,54.8,77.4,54.6,78.1,54.9z"/><path d="M91.8,56.2c-1.3,0.5-2.7,0.6-4.1,0.7C89,56.4,90.4,56.5,91.8,56.2z"/><path d="M88.8,47.2c0.8-0.4,1.6-0.4,2.5-0.2C90.5,47,89.7,47.3,88.8,47.2z"/><path d="M2.5,45.5c4.4-0.8,8.7-0.8,13-0.9c0,0.5-0.3,0.4-0.5,0.4c-2.1,0.1-4.2,0-6.3,0.2c-1.8,0.2-3.7,0.3-5.5,0.5  C3,45.8,2.8,45.8,2.5,45.5z"/><path d="M9.2,41c1.1,0,1.9-0.1,2.7-0.1c0.2,0,0.3,0,0.4,0.2c0.1,0.3-0.2,0.3-0.4,0.3c-1.2,0-2.4,0.1-3.6,0.1c-1.4,0-2.7,0.2-4.1,0.5  C4,42,3.8,42,3.7,42.1c-0.2,0-0.4,0-0.4-0.3c0-0.2,0.1-0.3,0.3-0.3c1.2,0,2.4-0.4,3.6-0.5C7.9,41,8.7,41,9.2,41z"/><path d="M21.7,44.2c0-0.3,0.1-0.3,0.2-0.4c0.2,0,0.5-0.1,0.7-0.1c1.5,0.2,3-0.4,4.4-0.2C25.3,44.1,23.6,44.3,21.7,44.2z"/><path d="M7.3,47.8c-1.5,0.2-3,0.5-4.5,0.6C4.2,47.5,5.8,47.8,7.3,47.8z"/><path d="M15.3,40.2c1-0.5,2-0.7,3.2-0.5C17.8,40.1,16.4,40.3,15.3,40.2z"/><path d="M6.9,37.3C6,37.5,5,37.7,4.1,37.8c-0.1,0-0.3-0.1-0.3-0.1c-0.1-0.2,0-0.3,0.2-0.4C5,37,5.9,37,6.8,37  C6.8,37.1,6.9,37.2,6.9,37.3z"/><path d="M15.4,47.4c0.8-0.5,1.7-0.3,2.6-0.4C17.2,47.7,16.3,47.3,15.4,47.4z"/><path d="M9.3,50.6c-0.7,0.2-1.5,0.1-2.4,0C7.8,50.1,8.5,50.5,9.3,50.6z"/><path d="M14.2,65.8c-2.6,0-5,1-7.6,0.7c0.8-0.4,1.7-0.2,2.5-0.3c0.8-0.1,1.7-0.3,2.6-0.3C12.5,65.8,13.4,65.3,14.2,65.8z"/><path d="M22.4,69.5c-1.6,0.9-3.4,0.3-5.2,0.8c0.4-0.7,0.9-0.6,1.3-0.6c1.2,0.1,2.4,0,3.6-0.3C22.2,69.3,22.3,69.4,22.4,69.5z"/><path d="M10.1,63.7c0,0.4-0.3,0.6-0.7,0.7c-0.2,0-0.4,0-0.4-0.2c0-0.4,0.3-0.6,0.7-0.7C9.8,63.4,10,63.4,10.1,63.7z"/><path d="M17.1,66.8c0.2,0.1,0.4,0.3,0.4,0.5c-0.1,0.3-0.3,0.3-0.6,0.3c-0.2,0-0.3-0.2-0.3-0.4C16.7,67,16.8,66.8,17.1,66.8z"/><text x="0" y="110" fill="#000000" font-size="5px" font-weight="bold" font-family="'Helvetica Neue', Helvetica, Arial-Unicode, Arial, Sans-serif"></text><text x="0" y="115" fill="#000000" font-size="5px" font-weight="bold" font-family="'Helvetica Neue', Helvetica, Arial-Unicode, Arial, Sans-serif"></text></svg>