<svg xmlns="http://www.w3.org/2000/svg" xmlns:xlink="http://www.w3.org/1999/xlink" version="1.1" x="0px" y="0px" viewBox="0 0 100 125" enable-background="new 0 0 100 100" xml:space="preserve"><path d="M19.47,69.52h61.074c0.95,0,1.218-0.584,0.537-1.242c-2.968-2.889-11.521-9.901-25.62-11.577  c0.762-19.747,6.689-30.82,7.93-32.93c0.313,0.311,0.668,0.665,1.051,1.048c0.373,0.373,0.774,0.756,1.179,1.182  c0.422,0.394,0.823,0.858,1.261,1.288c0.416,0.451,0.84,0.919,1.27,1.385c0.384,0.503,0.854,0.938,1.209,1.465l0.591,0.732  c0.181,0.257,0.36,0.512,0.536,0.766c0.164,0.26,0.379,0.491,0.531,0.753c0.157,0.262,0.312,0.523,0.479,0.771  c0.352,0.49,0.597,1.016,0.881,1.508c0.146,0.248,0.28,0.488,0.417,0.728c0.114,0.247,0.229,0.483,0.334,0.709  c0.218,0.466,0.479,0.892,0.649,1.293c0.156,0.401,0.328,0.756,0.465,1.054c0.281,0.604,0.49,0.962,0.49,0.962  s0.168-0.354,0.369-1.006c0.094-0.328,0.221-0.734,0.322-1.202c0.112-0.474,0.115-1,0.146-1.599c0.006-0.296,0.011-0.606,0.019-0.93  c-0.021-0.321-0.083-0.646-0.124-0.981c-0.105-0.682-0.217-1.409-0.492-2.109c-0.242-0.716-0.513-1.457-0.933-2.128  c-0.19-0.347-0.377-0.707-0.599-1.041l-0.726-0.956c-0.476-0.648-1.065-1.194-1.625-1.735c-0.272-0.276-0.594-0.495-0.896-0.729  c-0.309-0.229-0.586-0.479-0.91-0.655c-0.625-0.389-1.23-0.748-1.854-1.011c-0.557-0.27-1.104-0.462-1.627-0.622  c0.295,0.033,0.588,0.072,0.898,0.11c0.527,0.047,1.068,0.167,1.621,0.217c0.548,0.12,1.117,0.146,1.681,0.275  c0.569,0.109,1.134,0.187,1.697,0.338c0.571,0.081,1.114,0.263,1.67,0.384c0.563,0.104,1.081,0.316,1.62,0.441  c0.553,0.111,1.029,0.345,1.542,0.478c0.517,0.129,0.97,0.325,1.417,0.486c0.443,0.162,0.902,0.263,1.265,0.424  c0.368,0.151,0.724,0.263,1.009,0.36c0.58,0.197,0.959,0.288,0.959,0.288s-0.105-0.353-0.382-0.92  c-0.139-0.276-0.304-0.635-0.526-1.018c-0.213-0.389-0.541-0.748-0.881-1.172c-0.351-0.412-0.736-0.864-1.229-1.241  c-0.488-0.375-0.979-0.849-1.593-1.157c-0.291-0.175-0.601-0.339-0.913-0.501c-0.307-0.18-0.639-0.318-0.984-0.432  c-0.671-0.262-1.371-0.491-2.087-0.627c-0.366-0.064-0.722-0.146-1.079-0.192c-0.365-0.042-0.729-0.054-1.082-0.082  c-0.359-0.033-0.714-0.029-1.06-0.006c-0.335,0.018-0.663,0.036-0.985,0.064c0.348-0.165,0.688-0.332,1.041-0.507  c0.42-0.18,0.833-0.426,1.246-0.585c0.212-0.087,0.409-0.186,0.611-0.288c0.199-0.115,0.412-0.152,0.611-0.255  c0.396-0.172,0.789-0.362,1.181-0.485c0.387-0.149,0.763-0.337,1.124-0.427c0.359-0.12,0.71-0.251,1.029-0.375  c0.315-0.082,0.604-0.182,0.849-0.257c0.489-0.161,0.806-0.296,0.806-0.296s-0.21-0.226-0.648-0.549  c-0.225-0.155-0.494-0.358-0.828-0.554c-0.342-0.163-0.736-0.311-1.182-0.467c-0.451-0.172-0.945-0.233-1.488-0.299  c-0.541-0.084-1.106-0.069-1.695-0.013c-0.594,0.031-1.182,0.168-1.777,0.334c-0.609,0.127-1.146,0.42-1.723,0.653  c-0.546,0.28-1.073,0.583-1.564,0.931c-0.129,0.098-0.254,0.205-0.386,0.303c0.047-0.219,0.097-0.43,0.127-0.655  c0.093-0.589,0.153-1.202,0.158-1.814l-0.013-0.915c-0.016-0.306-0.067-0.616-0.098-0.914c-0.051-0.599-0.219-1.185-0.373-1.739  c-0.14-0.558-0.375-1.075-0.603-1.558c-0.118-0.242-0.222-0.473-0.34-0.689c-0.142-0.208-0.277-0.413-0.406-0.609  c-0.274-0.38-0.519-0.719-0.778-0.998c-0.268-0.278-0.529-0.494-0.738-0.672C62.109,5.164,61.827,5,61.827,5  s-0.054,0.344-0.077,0.873c-0.021,0.501-0.051,1.222-0.081,2.08c0.008,0.408,0,0.838-0.03,1.295  c-0.012,0.447,0.008,0.901-0.016,1.385c-0.012,0.471,0,0.953-0.021,1.447c-0.01,0.487,0.008,0.98-0.027,1.478  c0.025,0.496-0.016,0.994-0.01,1.49c0,0.008,0,0.018,0,0.027c-0.246-0.537-0.528-1.081-0.898-1.582  c-0.369-0.611-0.904-1.105-1.391-1.645c-0.527-0.489-1.113-0.913-1.682-1.326c-0.607-0.347-1.222-0.663-1.826-0.931  c-0.621-0.214-1.228-0.393-1.801-0.536c-0.583-0.122-1.146-0.152-1.656-0.191c-0.513-0.04-0.971-0.048-1.395,0.021  c-0.416,0.054-0.776,0.121-1.073,0.18c-0.585,0.12-0.918,0.238-0.918,0.238s0.278,0.252,0.745,0.599  c0.238,0.171,0.517,0.389,0.838,0.6c0.329,0.197,0.669,0.455,1.038,0.731c0.367,0.277,0.774,0.517,1.175,0.808  c0.391,0.308,0.793,0.613,1.219,0.897c0.396,0.333,0.789,0.672,1.213,0.974c0.361,0.375,0.789,0.681,1.15,1.048  c0.352,0.373,0.758,0.709,1.082,1.101c0.16,0.197,0.348,0.374,0.522,0.566c0.153,0.196,0.312,0.396,0.479,0.584  c0.336,0.381,0.606,0.794,0.912,1.172c0.256,0.376,0.54,0.728,0.766,1.081c-0.141-0.153-0.28-0.315-0.444-0.47  c-0.402-0.424-0.892-0.829-1.417-1.243c-0.541-0.401-1.13-0.797-1.776-1.148c-0.655-0.338-1.333-0.696-2.071-0.931  c-0.365-0.124-0.732-0.28-1.11-0.376l-1.156-0.271c-0.772-0.181-1.565-0.229-2.343-0.288c-0.388-0.047-0.776-0.027-1.158,0  c-0.382,0.016-0.757,0.033-1.123,0.067c-0.732,0.057-1.43,0.254-2.085,0.396c-0.651,0.134-1.243,0.406-1.78,0.621  c-0.537,0.244-1.028,0.428-1.428,0.704c-0.401,0.253-0.741,0.504-1.019,0.704c-0.547,0.404-0.828,0.674-0.828,0.674  s0.405,0.082,1.07,0.148c0.325,0.024,0.726,0.075,1.164,0.088c0.435,0,0.938,0.108,1.462,0.139c0.528,0.052,1.078,0.047,1.663,0.148  c0.574,0.089,1.179,0.091,1.79,0.198c0.609,0.111,1.237,0.145,1.866,0.27c0.628,0.134,1.271,0.17,1.896,0.346l0.951,0.182  c0.313,0.079,0.627,0.156,0.937,0.229c0.63,0.126,1.235,0.317,1.84,0.462c1.192,0.34,2.345,0.663,3.343,0.984  c0.516,0.161,0.987,0.313,1.406,0.442c-1.523,2.536-7.732,14.088-8.547,34.837c-0.389-0.015-0.763-0.044-1.159-0.05  c-1.987-0.026-3.87,0.078-5.673,0.265c-1.338-10.595-7.042-20.113-8.396-22.247c0.19-0.075,0.388-0.147,0.591-0.235  c0.373-0.139,0.742-0.313,1.149-0.467c0.384-0.17,0.799-0.323,1.204-0.493c0.405-0.188,0.837-0.298,1.24-0.494  c0.422-0.112,0.823-0.326,1.239-0.427c0.414-0.138,0.816-0.29,1.226-0.38c0.199-0.046,0.399-0.117,0.602-0.183  c0.203-0.041,0.406-0.069,0.605-0.125c0.399-0.121,0.799-0.171,1.194-0.237c0.195-0.044,0.393-0.082,0.583-0.125  c0.196-0.014,0.385-0.033,0.565-0.054c0.369-0.031,0.745-0.117,1.063-0.132c0.324-0.011,0.627-0.052,0.881-0.069  c0.509-0.054,0.844-0.118,0.844-0.118s-0.153-0.263-0.507-0.673c-0.175-0.201-0.396-0.455-0.667-0.717  c-0.278-0.255-0.635-0.46-1.034-0.71c-0.202-0.121-0.411-0.233-0.64-0.359c-0.229-0.099-0.476-0.176-0.732-0.262  c-0.259-0.09-0.531-0.158-0.804-0.242c-0.283-0.079-0.57-0.071-0.872-0.118c-0.296-0.031-0.601-0.044-0.911-0.062  c-0.305,0.008-0.613,0.046-0.925,0.082c-0.637,0.034-1.244,0.229-1.847,0.409c-0.602,0.192-1.156,0.482-1.696,0.757  c-0.014,0.009-0.027,0.019-0.04,0.026c0.235-0.348,0.453-0.709,0.695-1.038c0.261-0.417,0.553-0.802,0.817-1.182  c0.134-0.193,0.285-0.357,0.413-0.551c0.14-0.175,0.282-0.341,0.41-0.523c0.56-0.669,1.125-1.267,1.698-1.771  c0.286-0.254,0.572-0.473,0.848-0.68c0.288-0.204,0.541-0.379,0.753-0.521c0.451-0.262,0.738-0.465,0.738-0.465  s-0.271-0.175-0.82-0.391c-0.264-0.077-0.612-0.199-1.015-0.248c-0.403-0.053-0.873-0.078-1.385-0.026  c-1.014,0.092-2.205,0.49-3.278,1.194c-0.532,0.357-1.057,0.764-1.509,1.242c-0.463,0.462-0.868,0.983-1.237,1.519  c-0.351,0.539-0.67,1.094-0.923,1.662c-0.113,0.249-0.218,0.501-0.31,0.751c-0.007-0.152-0.012-0.313-0.018-0.463  c-0.002-0.427-0.051-0.858-0.054-1.265c0.004-0.414-0.063-0.83-0.051-1.226c-0.013-0.393-0.062-0.797-0.055-1.169  c0-0.375-0.061-0.766-0.035-1.108c-0.001-0.346-0.014-0.688-0.03-1.005c0.005-0.3,0.002-0.578,0.002-0.822  c0-0.477-0.033-0.798-0.033-0.798s-0.279,0.102-0.708,0.369c-0.206,0.137-0.482,0.298-0.761,0.526  c-0.249,0.232-0.515,0.52-0.801,0.846c-0.299,0.326-0.513,0.729-0.76,1.157c-0.256,0.432-0.429,0.915-0.592,1.421  c-0.186,0.508-0.269,1.046-0.344,1.596c-0.098,0.552-0.058,1.109-0.074,1.667c0.041,0.548,0.102,1.095,0.209,1.627  c0.004,0.014,0.008,0.025,0.01,0.034c-0.194-0.134-0.39-0.261-0.597-0.387c-0.54-0.277-1.095-0.564-1.697-0.757  c-0.605-0.179-1.211-0.371-1.848-0.406c-0.312-0.036-0.621-0.069-0.925-0.08c-0.31,0.016-0.614,0.033-0.911,0.063  c-0.599,0.029-1.158,0.187-1.674,0.362c-0.257,0.086-0.502,0.159-0.733,0.254c-0.237,0.128-0.467,0.249-0.678,0.375  c-0.403,0.254-0.792,0.47-1.038,0.719c-0.247,0.248-0.452,0.496-0.621,0.692c-0.34,0.403-0.513,0.673-0.513,0.673  s0.317,0.071,0.84,0.118c0.259,0.013,0.573,0.046,0.926,0.046c0.351,0.009,0.695,0.105,1.051,0.147  c0.177,0.024,0.359,0.038,0.536,0.061c0.191,0.036,0.387,0.074,0.582,0.121c0.199,0.039,0.396,0.062,0.596,0.088  c0.201,0.038,0.403,0.105,0.6,0.148c0.198,0.054,0.401,0.088,0.605,0.126c0.203,0.064,0.403,0.139,0.602,0.185  c0.41,0.09,0.813,0.245,1.225,0.383c0.416,0.102,0.814,0.317,1.237,0.43c0.4,0.201,0.836,0.304,1.237,0.496  c0.134,0.057,0.261,0.107,0.399,0.167c-0.39-0.025-0.784-0.046-1.196,0c-0.577,0.033-1.169,0.112-1.756,0.271  c-0.599,0.114-1.166,0.364-1.745,0.59c-0.566,0.245-1.099,0.57-1.616,0.887c-0.5,0.335-0.947,0.732-1.38,1.103  c-0.403,0.404-0.757,0.835-1.079,1.239c-0.329,0.396-0.551,0.853-0.771,1.243c-0.211,0.405-0.401,0.766-0.499,1.13  c-0.117,0.351-0.19,0.677-0.253,0.937c-0.12,0.524-0.143,0.845-0.143,0.845s0.326-0.103,0.804-0.305  c0.237-0.106,0.536-0.224,0.835-0.378c0.292-0.162,0.655-0.301,1.022-0.471c0.369-0.159,0.711-0.388,1.123-0.553  c0.401-0.175,0.792-0.383,1.194-0.591c0.418-0.175,0.831-0.38,1.237-0.588c0.434-0.158,0.831-0.406,1.263-0.569  c0.382-0.161,0.756-0.339,1.138-0.495c-0.085,0.085-0.18,0.165-0.272,0.246c-0.379,0.417-0.775,0.83-1.109,1.313  c-0.32,0.481-0.657,0.954-0.879,1.495c-0.269,0.51-0.463,1.042-0.595,1.588c-0.064,0.263-0.146,0.518-0.191,0.781  c-0.028,0.269-0.063,0.527-0.08,0.781c-0.016,0.253-0.04,0.494-0.044,0.728c0.004,0.241,0.036,0.474,0.063,0.688  c0.058,0.44,0.116,0.836,0.208,1.183c0.111,0.342,0.244,0.638,0.353,0.874c0.207,0.47,0.383,0.719,0.383,0.719  s0.2-0.259,0.468-0.673c0.131-0.209,0.294-0.453,0.449-0.722c0.175-0.271,0.387-0.566,0.58-0.877  c0.172-0.313,0.399-0.632,0.633-0.953c0.114-0.169,0.207-0.337,0.319-0.506c0.128-0.167,0.24-0.337,0.361-0.502  c0.126-0.174,0.225-0.352,0.34-0.524c0.132-0.164,0.259-0.342,0.378-0.521c0.234-0.351,0.5-0.707,0.755-1.057  c0.221-0.373,0.527-0.702,0.757-1.081c0.272-0.345,0.506-0.72,0.763-1.067c0.502-0.712,0.985-1.415,1.396-2.051  c0.061-0.097,0.116-0.185,0.174-0.274c1.638,2.697,6.336,11.089,7.443,20.032c-11.483,2.295-18.554,8.361-21.174,11.016  C18.239,68.925,18.519,69.52,19.47,69.52z"/><path d="M30.413,80.061c1.873,1.566,5.752,4.336,9.797,4.336c4.037,0,7.917-2.77,9.79-4.336c1.873,1.566,5.753,4.336,9.79,4.336  c4.045,0,7.924-2.77,9.797-4.336c1.866,1.566,5.754,4.336,9.791,4.336c5.509,0,10.726-5.158,10.947-5.379l-2.304-2.309  c-0.047,0.047-4.49,4.418-8.644,4.418c-4.151,0-8.595-4.371-8.642-4.418l-1.149-1.141l-1.153,1.141  c-0.049,0.047-4.492,4.418-8.644,4.418c-4.146,0-8.595-4.371-8.636-4.418l-1.156-1.141l-1.154,1.141  c-0.041,0.047-4.49,4.418-8.635,4.418c-4.152,0-8.595-4.371-8.643-4.418l-1.156-1.141l-1.147,1.141  c-0.047,0.047-4.49,4.418-8.642,4.418c-4.152,0-8.595-4.371-8.643-4.418l-2.304,2.309c0.22,0.221,5.438,5.379,10.947,5.379  C24.658,84.396,28.547,81.627,30.413,80.061z"/><path d="M79.378,91.739c-4.151,0-8.595-4.382-8.642-4.421l-1.149-1.147l-1.153,1.147c-0.049,0.039-4.492,4.421-8.644,4.421  c-4.146,0-8.595-4.382-8.636-4.421l-1.156-1.147l-1.154,1.147c-0.041,0.039-4.49,4.421-8.635,4.421  c-4.152,0-8.595-4.382-8.643-4.421l-1.156-1.147l-1.147,1.147c-0.047,0.039-4.49,4.421-8.642,4.421  c-4.152,0-8.595-4.382-8.643-4.421l-2.304,2.309C9.896,89.85,15.113,95,20.622,95c4.036,0,7.925-2.77,9.791-4.337  C32.286,92.23,36.165,95,40.21,95c4.037,0,7.917-2.77,9.79-4.337C51.873,92.23,55.753,95,59.79,95c4.045,0,7.924-2.77,9.797-4.337  C71.453,92.23,75.342,95,79.378,95c5.509,0,10.726-5.15,10.947-5.373l-2.304-2.309C87.973,87.357,83.529,91.739,79.378,91.739z"/><text x="0" y="115" fill="#000000" font-size="5px" font-weight="bold" font-family="'Helvetica Neue', Helvetica, Arial-Unicode, Arial, Sans-serif"></text><text x="0" y="120" fill="#000000" font-size="5px" font-weight="bold" font-family="'Helvetica Neue', Helvetica, Arial-Unicode, Arial, Sans-serif"></text></svg>