<?xml version="1.0" encoding="UTF-8"?>
<svg width="97px" height="104px" viewBox="0 0 97 104" version="1.1" xmlns="http://www.w3.org/2000/svg" xmlns:xlink="http://www.w3.org/1999/xlink">
    <!-- Generator: Sketch 50 (54983) - http://www.bohemiancoding.com/sketch -->
    <title>noun_1160539_cc</title>
    <desc>Created with Sketch.</desc>
    <defs></defs>
    <g id="Page-1" stroke="none" stroke-width="1" fill="none" fill-rule="evenodd">
        <g id="noun_1160539_cc" fill="#5695E2" fill-rule="nonzero">
            <path d="M12.1220512,75 L85.8925052,75 C87.0399973,75 87.3637109,74.3211407 86.5411402,73.5562616 C82.9561334,70.1980006 72.625081,62.0470397 55.5950906,60.0988066 C56.5155001,37.1442963 63.6746428,24.2727061 65.1736298,21.8199783 C65.5516982,22.1814941 65.9804979,22.5929944 66.4431184,23.0382052 C66.89366,23.4717917 67.3780225,23.9170025 67.8672165,24.4121978 C68.3769445,24.8701953 68.861307,25.4095629 69.3903612,25.9094079 C69.8928419,26.433664 70.4049858,26.9776813 70.9243769,27.5193738 C71.3882053,28.1040763 71.9559119,28.6097334 72.3847116,29.2223342 L73.0985725,30.0732331 C73.3171999,30.3719777 73.5334116,30.6683974 73.7459996,30.9636547 C73.9440929,31.2658865 74.2037885,31.5344079 74.3873872,31.8389647 C74.5770254,32.1435214 74.7642478,32.4469157 74.9659648,32.7351984 C75.3911408,33.3047892 75.687073,33.9162275 76.0301128,34.4881432 C76.2064642,34.7764259 76.3683209,35.0554092 76.5338014,35.3343924 C76.6715004,35.6215127 76.8104074,35.8958462 76.9372354,36.1585555 C77.2005547,36.700248 77.515813,37.1954433 77.7211537,37.6615778 C77.909584,38.1277123 78.1173405,38.5403751 78.2828209,38.8867793 C78.622237,39.5888872 78.8746852,40.0050372 78.8746852,40.0050372 C78.8746852,40.0050372 79.0776101,39.5935369 79.3203953,38.8356324 C79.4339366,38.4543552 79.5873382,37.9824086 79.7093347,37.4383912 C79.844618,36.8873993 79.8482417,36.2759609 79.8856861,35.5796652 C79.8929335,35.2355859 79.8989729,34.8752325 79.908636,34.4986051 C79.8832704,34.125465 79.8083814,33.7476751 79.7588581,33.358261 C79.63203,32.5654836 79.4967467,31.7203968 79.164578,30.9066956 C78.8722695,30.0743955 78.5449322,29.2130347 78.03762,28.433044 C77.8081215,28.0296807 77.5822468,27.6112058 77.314096,27.2229541 L76.4371705,26.1116708 C75.8622165,25.358416 75.1507715,24.7237291 74.4743551,24.0948543 C74.14581,23.7740236 73.7568705,23.5194513 73.3920889,23.2474427 C73.018852,22.9812461 72.6842674,22.6906386 72.2929122,22.4860508 C71.5379832,22.0338655 70.807212,21.616553 70.0534908,21.3108338 C69.3806981,20.9969777 68.7199843,20.7737911 68.0882597,20.5878022 C68.4445862,20.6261624 68.7984969,20.6714972 69.1729417,20.7156696 C69.8094978,20.7703038 70.4629643,20.9097954 71.1309255,20.9679169 C71.7928473,21.1074086 72.4801346,21.1376317 73.1613826,21.2875852 C73.8486699,21.4142901 74.5311257,21.5049597 75.2111658,21.6804867 C75.9008689,21.7746435 76.5567512,21.9862058 77.2283361,22.1268599 C77.9083761,22.2477526 78.5340613,22.4941878 79.185112,22.6394916 C79.8530732,22.7685214 80.4280271,23.0405301 81.0476729,23.1951333 C81.6721501,23.3450868 82.2193227,23.5729231 82.7592479,23.7600744 C83.2943416,23.9483881 83.8487614,24.0657936 84.2872242,24.2529448 C84.7317264,24.4284718 85.1617339,24.558664 85.5059816,24.6714197 C86.2065557,24.9004185 86.6643446,25.0061996 86.6643446,25.0061996 C86.6643446,25.0061996 86.5375166,24.5958617 86.202932,23.9367638 C86.0350358,23.615933 85.8357346,23.1986206 85.5675838,22.7534098 C85.310304,22.3012244 84.9141172,21.883912 84.5034359,21.3910415 C84.0794677,20.9121203 83.6144315,20.3867018 83.0189435,19.9484656 C82.4294949,19.5125542 81.8364227,18.9615623 81.0947804,18.6035338 C80.7432855,18.4001085 80.3688407,18.2094699 79.9919802,18.0211562 C79.621159,17.8119188 79.2201407,17.6515034 78.8034199,17.5189864 C77.9929282,17.2144296 77.1474077,16.9482331 76.282561,16.7901426 C75.8404746,16.7157471 75.410467,16.6204278 74.9792516,16.566956 C74.538373,16.5181339 74.0987024,16.5041847 73.6723185,16.4716367 C73.2386873,16.4332765 72.8098876,16.4379262 72.3919589,16.4646621 C71.987317,16.4855859 71.5911302,16.5065096 71.2021908,16.5390577 C71.6225353,16.3472567 72.0332167,16.1531308 72.4596006,15.9497055 C72.9669128,15.7404681 73.4657699,15.4545102 73.964627,15.2696838 C74.2206989,15.1685524 74.4586525,15.0534718 74.7026456,14.9349039 C74.943015,14.8012244 75.2002948,14.7582145 75.4406642,14.6384842 C75.9189872,14.4385462 76.3936866,14.2176844 76.867178,14.0747055 C77.3346301,13.9015034 77.7887954,13.6829665 78.2248423,13.5783478 C78.6584736,13.4388562 79.0824417,13.2865778 79.4677575,13.1424365 C79.8482417,13.0471172 80.1973208,12.9308741 80.493253,12.8436919 C81.0839095,12.6565406 81.4668094,12.4996125 81.4668094,12.4996125 C81.4668094,12.4996125 81.2131533,12.2369033 80.6840991,11.8614383 C80.4123246,11.6812616 80.0874032,11.4452883 79.6839691,11.217452 C79.270872,11.0279758 78.7949647,10.8559361 78.2562474,10.674597 C77.7114906,10.474659 77.1147947,10.4037508 76.4589124,10.3270304 C75.8054459,10.2293862 75.1229901,10.2468227 74.411545,10.3119188 C73.6940605,10.3479541 72.9838233,10.5072071 72.2651308,10.7001705 C71.529528,10.8477991 70.880893,11.1883912 70.1839426,11.4592374 C69.5244366,11.7847179 68.8878805,12.1369343 68.2948082,12.54146 C68.1389909,12.6553782 67.9880051,12.7797582 67.8285641,12.8936764 C67.8853348,12.6391042 67.9457291,12.3938314 67.9819657,12.1322846 C68.0942991,11.4476131 68.1667723,10.7350434 68.1728117,10.0236361 L68.1571092,8.9600124 C68.137783,8.60430874 68.0761808,8.24395536 68.0387363,7.89755115 C67.9771341,7.20125542 67.7742092,6.5200713 67.5881947,5.87608493 C67.4190906,5.22744885 67.1352373,4.62647241 66.8598392,4.0650186 C66.7173086,3.78371048 66.5916884,3.51518909 66.4491578,3.26410415 C66.277638,3.02231866 66.1145733,2.78402046 65.9587559,2.55618413 C65.6277951,2.11446063 65.3318629,1.72039678 65.0190203,1.39607874 C64.6953068,1.07292312 64.3800484,0.82183819 64.1276002,0.614925604 C63.6251194,0.190638562 63.2844954,0 63.2844954,0 C63.2844954,0 63.2192696,0.399876007 63.1914882,1.01480161 C63.1661226,1.59717917 63.129886,2.43529138 63.0936494,3.43265654 C63.1033125,3.90692808 63.0936494,4.40677309 63.0574128,4.93800372 C63.0429182,5.45761004 63.0670759,5.98535338 63.0380866,6.54796962 C63.023592,7.09547427 63.0380866,7.65576565 63.012721,8.2300062 C63.0006421,8.79610973 63.0223841,9.36918785 62.9801081,9.94807812 C63.0103052,10.5246435 62.9607819,11.1035338 62.9680292,11.6800992 C62.9680292,11.6893986 62.9680292,11.7010229 62.9680292,11.7114848 C62.6708892,11.0872598 62.3302652,10.4548977 61.8833472,9.87252015 C61.4376371,9.16227526 60.7914179,8.58803472 60.2031772,7.96032238 C59.5666211,7.39189399 58.8587997,6.89902356 58.1715123,6.41893986 C57.4383253,6.01557657 56.6954751,5.64824861 55.9659117,5.3367173 C55.2158143,5.08795722 54.4826272,4.87988221 53.7905083,4.71365468 C53.0863106,4.57183819 52.4062705,4.53696528 51.7902485,4.4916305 C51.1706027,4.44513329 50.6173908,4.43583385 50.1052469,4.51604154 C49.6027662,4.57881277 49.1679271,4.6566956 48.8091848,4.72527898 C48.1025713,4.86477061 47.7003451,5.00193738 47.7003451,5.00193738 C47.7003451,5.00193738 48.0361375,5.29486981 48.6002205,5.69823311 C48.8876974,5.89700868 49.2246977,6.15041847 49.6124293,6.39569126 C50.0098239,6.62469002 50.4205053,6.92459702 50.8662154,7.24542777 C51.3095097,7.56742095 51.8011194,7.84640422 52.2854819,8.18467142 C52.7577655,8.54269994 53.2433358,8.89724117 53.7578954,9.22737136 C54.2362184,9.61446063 54.7109178,10.0085245 55.2230616,10.3595784 C55.6591086,10.7954898 56.176084,11.1511934 56.612131,11.5778053 C57.037307,12.0113918 57.5277089,12.4019684 57.9190641,12.857641 C58.1123259,13.0866398 58.3394085,13.29239 58.5495808,13.5155766 C58.7343874,13.7434129 58.9264413,13.9758989 59.1281583,14.1944358 C59.5340082,14.6373218 59.8601375,15.1174055 60.2297507,15.5568041 C60.5389697,15.9938779 60.8820094,16.4030533 61.1549917,16.8133912 C60.9846797,16.6355394 60.8167835,16.4472257 60.6186902,16.267049 C60.1331198,15.7741785 59.5412555,15.3033943 58.9071151,14.8221482 C58.2536486,14.3560136 57.5422035,13.8956913 56.7619089,13.4876782 C55.9707433,13.0947768 55.1517963,12.6786268 54.2603761,12.4054557 C53.8194976,12.2613143 53.3762033,12.0799752 52.9196222,11.9683819 L51.5233056,11.6533633 C50.5908173,11.4429634 49.6329633,11.3871668 48.6932277,11.3185834 C48.2245678,11.2639492 47.7559079,11.2871978 47.2944953,11.3185834 C46.8330827,11.3371823 46.3801253,11.3569436 45.9380388,11.3964662 C45.053866,11.4627247 44.2107613,11.6917235 43.4195957,11.8567886 C42.6332616,12.0125542 41.9181929,12.3287353 41.2695579,12.5786578 C40.6209229,12.8622908 40.0278507,13.0761779 39.5446961,13.3970087 C39.0603337,13.6911035 38.6496523,13.9828735 38.3138599,14.2153596 C37.653146,14.6849814 37.3137299,14.9988376 37.3137299,14.9988376 C37.3137299,14.9988376 37.8029239,15.0941569 38.6061684,15.1708772 C38.9987315,15.1987756 39.4830939,15.2580595 40.0121482,15.2731711 C40.5375787,15.2731711 41.1451456,15.3987136 41.7780781,15.4347489 C42.4158421,15.4951953 43.0801796,15.4893831 43.7867932,15.6067886 C44.48012,15.7102449 45.2108912,15.7125697 45.9489098,15.8369498 C46.6845126,15.9659795 47.4430653,16.0055022 48.2028258,16.150806 C48.9613785,16.3065716 49.7380495,16.3484191 50.4929785,16.5530068 L51.6416784,16.7645691 C52.0197469,16.8564011 52.3990232,16.9459082 52.773468,17.0307657 C53.5344364,17.1772319 54.2652077,17.399256 54.995979,17.5678084 C56.4357796,17.9630347 57.8284726,18.3384997 59.0339432,18.7116398 C59.6572126,18.8987911 60.2261271,19.0754805 60.7322315,19.225434 C58.8926205,22.1733571 51.3928538,35.6017514 50.4084264,59.7210167 C49.9385586,59.7035803 49.4868091,59.6698698 49.0084861,59.6628952 C46.6084158,59.632672 44.3339657,59.7535648 42.1561465,59.9709392 C40.5399945,47.6549907 33.6502105,36.5909795 32.0147323,34.1103534 C32.2442307,34.0231711 32.4833922,33.9394761 32.7285932,33.8371823 C33.1791348,33.6756045 33.6248449,33.4733416 34.1164546,33.2943273 C34.580283,33.0967142 35.0815559,32.9188624 35.5707499,32.7212492 C36.0599439,32.5027123 36.5817508,32.374845 37.068529,32.1470087 C37.5782571,32.0168165 38.0626195,31.7680564 38.5651002,31.650651 C39.0651652,31.4902356 39.5507356,31.3135462 40.045969,31.2089275 C40.2863384,31.1554557 40.5279156,31.0729231 40.7731166,30.9962027 C41.0183175,30.9485431 41.2635185,30.915995 41.5038879,30.8508989 C41.9858345,30.7102449 42.4689891,30.6521234 42.9461042,30.575403 C43.1816421,30.524256 43.4208036,30.4800837 43.650302,30.4300992 C43.8870477,30.4138252 44.1153383,30.391739 44.3327578,30.367328 C44.7784679,30.3312926 45.2326332,30.2313236 45.6167411,30.2138872 C46.0080963,30.2011004 46.3740858,30.1534408 46.680889,30.1336795 C47.2957032,30.0709082 47.7003451,29.9965127 47.7003451,29.9965127 C47.7003451,29.9965127 47.5155385,29.6907936 47.0879467,29.2141971 C46.8765666,28.9805487 46.6096237,28.6852914 46.2822865,28.3807347 C45.946494,28.0843149 45.5152786,27.8460167 45.0333319,27.5554092 C44.7893389,27.4147551 44.5368906,27.2845629 44.2602846,27.1380967 C43.9836786,27.0230161 43.6853307,26.933509 43.3761118,26.83354 C43.0632692,26.7289213 42.7347241,26.649876 42.4049711,26.5522319 C42.0631393,26.4603999 41.7164759,26.4696993 41.3516942,26.4150651 C40.9941598,26.3790298 40.6257544,26.3639182 40.2513097,26.3429944 C39.8829043,26.3522939 39.5108753,26.3964662 39.1340147,26.4383137 C38.3645911,26.4778363 37.6314041,26.7045102 36.9030486,26.9137477 C36.1759009,27.1369343 35.5067319,27.4740391 34.8544732,27.7937074 C34.8375628,27.8041692 34.8218603,27.8157936 34.8061578,27.8239306 C35.0900111,27.4194048 35.3533303,26.9997675 35.6456388,26.617328 C35.9608972,26.1325945 36.3136,25.6850589 36.632482,25.2433354 C36.7943388,25.0189864 36.9767296,24.8283478 37.1313391,24.6028363 C37.3004432,24.399411 37.4719631,24.2064476 37.6265725,23.9948853 C38.3029889,23.2172195 38.9854447,22.5220862 39.6775636,21.9362213 C40.0230191,21.640964 40.3684746,21.3863918 40.7018513,21.1457688 C41.0497226,20.908633 41.3553178,20.7052077 41.6113898,20.5401426 C42.1561465,20.2355859 42.5028099,19.9996125 42.5028099,19.9996125 C42.5028099,19.9996125 42.1754727,19.7961872 41.5123431,19.5451023 C41.1934611,19.4555952 40.7731166,19.3137787 40.2863384,19.2568196 C39.7995601,19.1952108 39.2318535,19.16615 38.6134157,19.2265964 C37.3886189,19.33354 35.9500262,19.7961872 34.6539641,20.6145381 C34.0113685,21.0295257 33.3772282,21.5026348 32.8312635,22.0582765 C32.2720121,22.5953193 31.7828181,23.2009454 31.337108,23.8240081 C30.9131399,24.450558 30.5278241,25.0957068 30.2222289,25.7559671 C30.0857377,26.0454123 29.9589096,26.3383447 29.8477841,26.6289523 C29.8393289,26.4522629 29.8332895,26.2651116 29.8260421,26.0907471 C29.8236264,25.5943893 29.7644399,25.0933819 29.7608163,24.6202728 C29.7656478,24.1390267 29.6847194,23.6554557 29.6992141,23.1951333 C29.6835115,22.7382982 29.6243251,22.2686764 29.6327803,21.8362523 C29.6327803,21.400341 29.5590992,20.9458308 29.5905043,20.5482796 C29.5892964,20.1460787 29.5735939,19.7485276 29.5542677,19.3800372 C29.5603071,19.0313081 29.5566835,18.7081525 29.5566835,18.4245195 C29.5566835,17.8700403 29.5168232,17.4969002 29.5168232,17.4969002 C29.5168232,17.4969002 29.1798229,17.6154681 28.6616396,17.9258369 C28.412815,18.0850899 28.0794384,18.2722412 27.7424381,18.5372753 C27.4416744,18.8069591 27.1203766,19.141739 26.7749211,19.5206913 C26.4137631,19.8996435 26.1552754,20.3681029 25.8569274,20.8656231 C25.5477085,21.3677929 25.3387442,21.9292467 25.1418587,22.5174365 C24.9171918,23.107951 24.8169372,23.7333385 24.7263457,24.3726751 C24.6079729,25.0143366 24.6562883,25.6618103 24.6369622,26.3104464 C24.6864855,26.9474582 24.7601666,27.5833075 24.8894104,28.2017204 C24.894242,28.2179944 24.8990735,28.2307812 24.9014893,28.241243 C24.6671593,28.0854774 24.4304136,27.9378487 24.1803811,27.7913825 C23.5281224,27.4693893 22.8577455,27.1357719 22.1305979,26.9114228 C21.3998266,26.7033478 20.6678474,26.4801612 19.8984238,26.4394761 C19.5215632,26.3976286 19.1483263,26.3592684 18.7811289,26.3464817 C18.4066841,26.3650806 18.0394866,26.3848419 17.6807444,26.4197148 C16.9572204,26.4534253 16.2820119,26.6370893 15.6587425,26.8405146 C15.3483157,26.9404836 15.0523836,27.025341 14.7733618,27.1357719 C14.4870927,27.2845629 14.2092789,27.425217 13.9544148,27.5716832 C13.4676366,27.8669405 12.9977688,28.1180254 12.7006287,28.4074706 C12.4022808,28.6957533 12.1546641,28.984036 11.9505313,29.2118723 C11.5398499,29.6803317 11.3308856,29.9941878 11.3308856,29.9941878 C11.3308856,29.9941878 11.7137855,30.0767204 12.3455101,30.1313546 C12.6583527,30.1464662 13.037629,30.1848264 13.4640129,30.1848264 C13.8879811,30.1952883 14.303494,30.3068816 14.7335016,30.3557037 C14.9472974,30.383602 15.1671328,30.399876 15.3809287,30.4266119 C15.611635,30.4684594 15.8483807,30.5126317 16.0839185,30.567266 C16.3242879,30.6126007 16.5622416,30.6393366 16.8038188,30.6695598 C17.046604,30.7137322 17.2905971,30.791615 17.5285507,30.8415995 C17.7677122,30.9043707 18.0129131,30.9438934 18.259322,30.9880657 C18.5045229,31.0624613 18.7461002,31.1496435 18.9864696,31.2031153 C19.481703,31.307734 19.9684812,31.4879107 20.4661304,31.6483261 C20.9686112,31.766894 21.4493499,32.0168165 21.9602859,32.1481711 C22.4434405,32.3818196 22.9700789,32.5015499 23.4544414,32.7247365 C23.6162981,32.790995 23.7696997,32.8491166 23.936388,32.9188624 C23.4653123,32.8898016 22.9894051,32.8653906 22.4917559,32.9188624 C21.7948055,32.9572226 21.0797367,33.0490546 20.3707074,33.233881 C19.6471834,33.366398 18.9623118,33.6570056 18.2629456,33.9197148 C17.5792819,34.2045102 16.9354785,34.5823001 16.3110012,34.9507905 C15.707058,35.3402046 15.1671328,35.8016894 14.644118,36.232951 C14.1573397,36.7025728 13.729748,37.2035803 13.3408085,37.6732021 C12.9434139,38.1335245 12.6752631,38.6647551 12.4095281,39.1181029 C12.1546641,39.5888872 11.9251657,40.0085245 11.8067928,40.4316491 C11.6654701,40.8396621 11.5772944,41.2186144 11.5011975,41.5208462 C11.3562512,42.1299597 11.3284698,42.5030998 11.3284698,42.5030998 C11.3284698,42.5030998 11.7222408,42.3833695 12.2996105,42.1485586 C12.5858795,42.025341 12.9470376,41.8881742 13.3081956,41.70916 C13.6608984,41.5208462 14.0993612,41.3592684 14.5426555,41.1616553 C14.9883656,40.9768289 15.4014627,40.7106324 15.8991119,40.5188314 C16.3834744,40.3154061 16.855758,40.0736206 17.3413283,39.8318351 C17.8462248,39.6284098 18.3450819,39.3901116 18.8354838,39.1483261 C19.3597065,38.9646621 19.8392374,38.6763794 20.3610443,38.4869033 C20.8224569,38.299752 21.2742064,38.0928394 21.735619,37.9115003 C21.6329487,38.0103069 21.5181995,38.1033013 21.4070739,38.1974582 C20.949285,38.6821916 20.470962,39.1622753 20.0675279,39.7237291 C19.6810043,40.282858 19.2739465,40.8326875 19.0057958,41.4615623 C18.6808743,42.0544017 18.4465443,42.6728146 18.2871033,43.3075015 C18.2097986,43.6132207 18.1107519,43.9096404 18.056397,44.2153596 C18.0225762,44.5280533 17.9803002,44.8279603 17.9597661,45.1232176 C17.9404399,45.4173125 17.9114507,45.6974582 17.9066191,45.9694668 C17.9114507,46.2496125 17.950103,46.5204588 17.982716,46.7692188 C18.0527734,47.2806882 18.1228308,47.7410105 18.2339563,48.1443738 C18.3680317,48.541925 18.5286806,48.8860043 18.6603402,49.1603379 C18.9103727,49.7066801 19.1229607,49.9961252 19.1229607,49.9961252 C19.1229607,49.9961252 19.364538,49.6950558 19.6882516,49.2138097 C19.8464847,48.9708617 20.0433702,48.6872288 20.2305926,48.374535 C20.4419727,48.0595164 20.6980446,47.7165995 20.9311667,47.3550837 C21.1389231,46.991243 21.4131133,46.6204278 21.6957588,46.2472877 C21.8334578,46.0508369 21.9457913,45.8555487 22.0810745,45.659098 C22.235684,45.4649721 22.3709673,45.267359 22.5171215,45.075558 C22.6693152,44.8732951 22.788896,44.6663825 22.9278029,44.4664445 C23.0872439,44.275806 23.2406455,44.0688934 23.384384,43.8608184 C23.6670294,43.4528053 23.9883272,43.0389802 24.2963382,42.6321296 C24.5632811,42.1985431 24.9328943,41.8161035 25.2107082,41.3755425 C25.5392533,40.974504 25.8218987,40.5385927 26.1323255,40.1352294 C26.7386845,39.307579 27.3220936,38.4903906 27.8185349,37.7510849 C27.892216,37.6383292 27.9586498,37.5360353 28.0287072,37.432579 C30.0072251,40.5676534 35.6818754,50.3227681 37.0190057,60.7183819 C23.1488461,63.3861593 14.6078814,70.4374613 11.443219,73.5237136 C10.635143,74.308354 10.9733512,75 12.1220512,75 Z" id="Shape"></path>
            <path d="M24.9439568,87.0889115 C27.1966101,88.8626118 31.8618757,92 36.7267892,92 C41.582081,92 46.2485493,88.8626118 48.5012027,87.0889115 C50.7538561,88.8626118 55.4203244,92 60.2756162,92 C65.1405297,92 69.8057953,88.8626118 72.0584486,87.0889115 C74.3026831,88.8626118 78.978773,92 83.8340649,92 C90.4597282,92 96.7342037,86.1578888 97,85.9075773 L94.2289838,83.2923321 C94.172457,83.3455657 88.8288697,88.2962963 83.8328622,88.2962963 C78.8404627,88.2962963 73.4956728,83.3455657 73.439146,83.2923321 L72.0572459,82 L70.6705351,83.2923321 C70.6116029,83.3455657 65.2680157,88.2962963 60.2744135,88.2962963 C55.2880276,88.2962963 49.9372241,83.3455657 49.8879135,83.2923321 L48.4975946,82 L47.1096811,83.2923321 C47.0603705,83.3455657 41.709567,88.2962963 36.7243838,88.2962963 C31.7307816,88.2962963 26.3871944,83.3455657 26.3294649,83.2923321 L24.939146,82 L23.5596513,83.2923321 C23.5031245,83.3455657 18.1595373,88.2962963 13.1659351,88.2962963 C8.17233299,88.2962963 2.82874572,83.3455657 2.77101622,83.2923321 L0,85.9075773 C0.264593562,86.1578888 6.54027178,92 13.1659351,92 C18.0224297,91.9988674 22.6997223,88.8626118 24.9439568,87.0889115 Z" id="Shape"></path>
            <path d="M83.8339016,100.30649 C78.8414403,100.30649 73.496584,95.3433005 73.4400565,95.2991279 L72.0581394,94 L70.6714114,95.2991279 C70.6124785,95.3433005 65.2688249,100.30649 60.2751609,100.30649 C55.2887131,100.30649 49.9378433,95.3433005 49.8885321,95.2991279 L48.4981959,94 L47.1102652,95.2991279 C47.060954,95.3433005 41.7100842,100.30649 36.7248391,100.30649 C31.7311751,100.30649 26.3875215,95.3433005 26.3297913,95.2991279 L24.9394552,94 L23.5599435,95.2991279 C23.503416,95.3433005 18.1597624,100.30649 13.1660984,100.30649 C8.17243432,100.30649 2.8287808,95.3433005 2.77105058,95.2991279 L0,97.9143731 C0.267002269,98.1669498 6.54155559,104 13.1673011,104 C18.0214504,104 22.698801,100.862612 24.9430633,99.0877789 C27.1957446,100.862612 31.8610681,104 36.7260418,104 C41.5813939,104 46.2479201,100.862612 48.5006014,99.0877789 C50.7532827,100.862612 55.4198088,104 60.2751609,104 C65.1401347,104 69.8054581,100.862612 72.0581394,99.0877789 C74.3024017,100.862612 78.9797523,104 83.8339016,104 C90.4596471,104 96.7342004,98.1669498 97,97.9143731 L94.2289494,95.2991279 C94.1712192,95.3433005 88.826363,100.30649 83.8339016,100.30649 Z" id="Shape"></path>
        </g>
    </g>
</svg>