<svg xmlns="http://www.w3.org/2000/svg" data-name="Layer 1" viewBox="0 0 100 125" x="0px" y="0px"><title></title><path d="M47.74,97.94A45,45,0,0,1,22.42,17.49,6,6,0,0,1,32,22.32,5.87,5.87,0,0,1,29.78,27a33,33,0,1,0,40.46,0A5.89,5.89,0,0,1,68,22.32h0a6,6,0,0,1,9.57-4.83A45,45,0,0,1,47.74,97.94ZM44,8V35a6,6,0,0,0,12,0V8A6,6,0,1,0,44,8Z"/><text x="0" y="115" fill="#000000" font-size="5px" font-weight="bold" font-family="'Helvetica Neue', Helvetica, Arial-Unicode, Arial, Sans-serif"></text><text x="0" y="120" fill="#000000" font-size="5px" font-weight="bold" font-family="'Helvetica Neue', Helvetica, Arial-Unicode, Arial, Sans-serif"></text></svg>