<?xml version="1.0" encoding="UTF-8"?>
<svg width="90px" height="96px" viewBox="0 0 90 96" version="1.1" xmlns="http://www.w3.org/2000/svg" xmlns:xlink="http://www.w3.org/1999/xlink">
    <!-- Generator: Sketch 50 (54983) - http://www.bohemiancoding.com/sketch -->
    <title>Shape</title>
    <desc>Created with Sketch.</desc>
    <defs></defs>
    <g id="Page-1" stroke="none" stroke-width="1" fill="none" fill-rule="evenodd">
        <g id="noun_1015823_cc" fill="#FFFFFF" fill-rule="nonzero">
            <path d="M42.74,95.94 C23.9700189,94.9704366 7.77960245,82.4374932 2.13711694,64.5094537 C-3.50536858,46.5814142 2.58868739,27.0348867 17.42,15.49 C19.2423327,14.1350483 21.6734633,13.9250101 23.7011815,14.9473357 C25.7288997,15.9696612 27.005707,18.0491504 27,20.32 C27.0255247,22.1397991 26.205497,23.8685061 24.78,25 C13.6364226,33.6466292 9.22020726,48.4197442 13.790017,61.7636699 C18.3598267,75.1075955 30.9052663,84.07196 45.01,84.07196 C59.1147337,84.07196 71.6601733,75.1075955 76.229983,61.7636699 C80.7997927,48.4197442 76.3835774,33.6466292 65.24,25 C63.809447,23.8706066 62.9823444,22.1425531 63,20.32 C62.9971094,18.0527283 64.2724931,15.9774626 66.2965828,14.9559001 C68.3206725,13.9343376 70.7477354,14.1409704 72.57,15.49 C88.0494279,27.5457776 93.9336031,48.2411402 87.1124296,66.6375 C80.291256,85.0338597 62.3372305,96.8902724 42.74,95.94 Z M39,6 L39,33 C39.0000001,36.3137084 41.6862916,38.9999998 45,38.9999998 C48.3137084,38.9999998 50.9999999,36.3137084 51,33 L51,6 C51.0000001,3.85640642 49.8564065,1.87564424 48.0000001,0.803847428 C46.1435936,-0.267949381 43.8564064,-0.267949381 41.9999999,0.803847428 C40.1435935,1.87564424 38.9999999,3.85640642 39,6 Z" id="Shape"></path>
        </g>
    </g>
</svg>