<svg xmlns="http://www.w3.org/2000/svg" xmlns:xlink="http://www.w3.org/1999/xlink" version="1.1" x="0px" y="0px" viewBox="0 0 24 30" style="enable-background:new 0 0 24 24;" xml:space="preserve"><style type="text/css">
	.st0{fill-rule:evenodd;clip-rule:evenodd;}
</style><g><g><path d="M12,14c-3.3,0-6-2.7-6-6s2.7-6,6-6s6,2.7,6,6S15.3,14,12,14z M12,4C9.8,4,8,5.8,8,8s1.8,4,4,4s4-1.8,4-4S14.2,4,12,4z"/></g><g><path d="M21,22c-0.6,0-1-0.4-1-1c0-3.9-3.1-7-7-7h-2c-3.9,0-7,3.1-7,7c0,0.6-0.4,1-1,1s-1-0.4-1-1c0-5,4-9,9-9h2c5,0,9,4,9,9    C22,21.6,21.6,22,21,22z"/></g></g><text x="0" y="39" fill="#000000" font-size="5px" font-weight="bold" font-family="'Helvetica Neue', Helvetica, Arial-Unicode, Arial, Sans-serif"></text><text x="0" y="44" fill="#000000" font-size="5px" font-weight="bold" font-family="'Helvetica Neue', Helvetica, Arial-Unicode, Arial, Sans-serif"></text></svg>