<?xml version="1.0" encoding="UTF-8"?>
<svg width="20px" height="20px" viewBox="0 0 20 20" version="1.1" xmlns="http://www.w3.org/2000/svg" xmlns:xlink="http://www.w3.org/1999/xlink">
    <!-- Generator: Sketch 50 (54983) - http://www.bohemiancoding.com/sketch -->
    <title>noun_1695617_cc</title>
    <desc>Created with Sketch.</desc>
    <defs></defs>
    <g id="Page-1" stroke="none" stroke-width="1" fill="none" fill-rule="evenodd">
        <g id="noun_1695617_cc" fill="#5695E2" fill-rule="nonzero">
            <g id="Group">
                <path d="M10,12 C6.7,12 4,9.3 4,6 C4,2.7 6.7,0 10,0 C13.3,0 16,2.7 16,6 C16,9.3 13.3,12 10,12 Z M10,2 C7.8,2 6,3.8 6,6 C6,8.2 7.8,10 10,10 C12.2,10 14,8.2 14,6 C14,3.8 12.2,2 10,2 Z" id="Shape"></path>
                <path d="M19,20 C18.4,20 18,19.6 18,19 C18,15.1 14.9,12 11,12 L9,12 C5.1,12 2,15.1 2,19 C2,19.6 1.6,20 1,20 C0.4,20 0,19.6 0,19 C0,14 4,10 9,10 L11,10 C16,10 20,14 20,19 C20,19.6 19.6,20 19,20 Z" id="Shape"></path>
            </g>
        </g>
    </g>
</svg>