<svg xmlns="http://www.w3.org/2000/svg" data-name="Layer 1" viewBox="0 0 100 125" x="0px" y="0px"><title>Basic </title><path d="M79.79,30.2l5-5A3,3,0,0,0,80.54,21l-5,5A39,39,0,0,0,53,16.6V11h4.24a3,3,0,1,0,0-6H42.76a3,3,0,0,0,0,6H47v5.6A39.3,39.3,0,1,0,79.79,30.2ZM50,89A33.27,33.27,0,1,1,83.26,55.74,33.3,33.3,0,0,1,50,89Z"/><path d="M50,28.63a3,3,0,0,0-3,3V54.49L36.62,64.87A3,3,0,0,0,38.74,70a3,3,0,0,0,2.12-.88L52.12,57.86a3.32,3.32,0,0,0,.38-.46l.11-.22a1.73,1.73,0,0,0,.16-.3,2.63,2.63,0,0,0,.09-.3,2,2,0,0,0,.08-.26,2.86,2.86,0,0,0,.06-.58V31.63A3,3,0,0,0,50,28.63Z"/><text x="0" y="115" fill="#000000" font-size="5px" font-weight="bold" font-family="'Helvetica Neue', Helvetica, Arial-Unicode, Arial, Sans-serif"></text><text x="0" y="120" fill="#000000" font-size="5px" font-weight="bold" font-family="'Helvetica Neue', Helvetica, Arial-Unicode, Arial, Sans-serif"></text></svg>