<?xml version="1.0" encoding="UTF-8"?>
<svg width="80px" height="91px" viewBox="0 0 80 91" version="1.1" xmlns="http://www.w3.org/2000/svg" xmlns:xlink="http://www.w3.org/1999/xlink">
    <!-- Generator: Sketch 50 (54983) - http://www.bohemiancoding.com/sketch -->
    <title>noun_1715603_cc</title>
    <desc>Created with Sketch.</desc>
    <defs></defs>
    <g id="Page-1" stroke="none" stroke-width="1" fill="none" fill-rule="evenodd">
        <g id="noun_1715603_cc" fill="#5695E2" fill-rule="nonzero">
            <path d="M69.79,25.2 L74.79,20.2 C75.7755288,19.0021275 75.6853573,17.2504851 74.5820351,16.1601431 C73.4787128,15.0698011 71.7261259,15.0003647 70.54,16 L65.54,21 C59.2267527,15.5344055 51.3259169,12.2394696 43,11.6 L43,6 L47.24,6 C48.8968542,6 50.24,4.65685425 50.24,3 C50.24,1.34314575 48.8968542,0 47.24,0 L32.76,0 C31.1031458,0 29.76,1.34314575 29.76,3 C29.76,4.65685425 31.1031458,6 32.76,6 L37,6 L37,11.6 C18.8616013,12.9707999 4.03420977,26.6099308 1.15653242,44.570988 C-1.72114492,62.5320451 8.10299236,80.1207847 24.9052238,87.0896882 C41.7074553,94.0585918 61.0964042,88.5862893 71.7757175,73.8610434 C82.4550307,59.1357974 81.6335976,39.0061506 69.79,25.2 Z M40,84 C26.5417219,84.0040446 14.4065715,75.899552 9.25444293,63.4664979 C4.10231437,51.0334437 6.94811879,36.720999 16.4645589,27.2045589 C25.980999,17.6881188 40.2934437,14.8423144 52.7264979,19.9944429 C65.159552,25.1465715 73.2640446,37.2817219 73.26,50.74 C73.2379593,69.0998535 58.3598535,83.9779593 40,84 Z" id="Shape"></path>
            <path d="M40,23.63 C38.3431458,23.63 37,24.9731458 37,26.63 L37,49.49 L26.62,59.87 C25.7559432,60.726993 25.4952223,62.0210713 25.9600189,63.1457914 C26.4248155,64.2705115 27.5230275,65.0030036 28.74,65 C29.5353814,64.9992998 30.2979306,64.6827699 30.86,64.12 L42.12,52.86 C42.2602161,52.7183825 42.3873962,52.5644276 42.5,52.4 L42.61,52.18 C42.6730544,52.0854961 42.7266465,51.985011 42.77,51.88 C42.8059332,51.7818767 42.8359865,51.6816992 42.86,51.58 C42.8925366,51.4952494 42.919265,51.4083819 42.94,51.32 C42.9797076,51.1292157 42.999812,50.9348726 43,50.74 L43,26.63 C43,25.8343505 42.6839295,25.0712888 42.1213203,24.5086797 C41.5587112,23.9460705 40.7956495,23.63 40,23.63 Z" id="Shape"></path>
        </g>
    </g>
</svg>